<?xml version="1.0" encoding="UTF-8"?>
<svg xmlns="http://www.w3.org/2000/svg" xmlns:xlink="http://www.w3.org/1999/xlink" width="13pt" height="15pt" viewBox="0 0 13 15" version="1.1">
<g id="surface1">
<path style=" stroke:none;fill-rule:nonzero;fill:rgb(100%,81.960784%,0%);fill-opacity:1;" d="M 12.828125 7.402344 C 12.828125 11.488281 9.957031 14.800781 6.414062 14.800781 C 2.875 14.800781 0 11.488281 0 7.402344 C 0 3.316406 2.875 0 6.414062 0 C 9.957031 0 12.828125 3.316406 12.828125 7.402344 Z M 12.828125 7.402344 "/>
<path style=" stroke:none;fill-rule:nonzero;fill:rgb(100%,58.431373%,0%);fill-opacity:1;" d="M 6.414062 14.800781 C 8.183594 14.800781 9.789062 13.972656 10.953125 12.636719 L 1.878906 2.167969 C 0.71875 3.507812 0 5.359375 0 7.402344 C 0 11.488281 2.875 14.800781 6.414062 14.800781 Z M 6.414062 14.800781 "/>
<path style=" stroke:none;fill-rule:nonzero;fill:rgb(100%,100%,100%);fill-opacity:1;" d="M 6.417969 7.03125 C 5.546875 7.03125 4.808594 6.488281 4.808594 5.847656 C 4.808594 5.203125 5.546875 4.664062 6.417969 4.664062 C 7.289062 4.664062 8.023438 5.203125 8.023438 5.847656 C 8.023438 6.050781 8.167969 6.21875 8.34375 6.21875 C 8.523438 6.21875 8.667969 6.050781 8.667969 5.847656 C 8.667969 4.859375 7.839844 4.074219 6.738281 3.945312 L 6.738281 3.453125 C 6.738281 3.25 6.59375 3.082031 6.417969 3.082031 C 6.242188 3.082031 6.097656 3.25 6.097656 3.453125 L 6.097656 3.945312 C 4.992188 4.074219 4.167969 4.859375 4.167969 5.847656 C 4.167969 6.925781 5.15625 7.769531 6.417969 7.769531 C 7.289062 7.769531 8.023438 8.316406 8.023438 8.953125 C 8.023438 9.597656 7.289062 10.136719 6.417969 10.136719 C 5.546875 10.136719 4.808594 9.597656 4.808594 8.953125 C 4.808594 8.75 4.664062 8.585938 4.488281 8.585938 C 4.308594 8.585938 4.167969 8.75 4.167969 8.953125 C 4.167969 9.941406 4.992188 10.726562 6.097656 10.859375 L 6.097656 11.347656 C 6.097656 11.554688 6.242188 11.71875 6.417969 11.71875 C 6.59375 11.71875 6.738281 11.554688 6.738281 11.347656 L 6.738281 10.859375 C 7.839844 10.726562 8.667969 9.941406 8.667969 8.953125 C 8.667969 7.875 7.679688 7.03125 6.417969 7.03125 Z M 6.417969 7.03125 "/>
<path style=" stroke:none;fill-rule:nonzero;fill:rgb(100%,81.960784%,0%);fill-opacity:1;" d="M 6.203125 12.582031 C 6.203125 12.449219 6.300781 12.335938 6.417969 12.335938 C 6.535156 12.335938 6.632812 12.449219 6.632812 12.582031 C 6.632812 12.71875 6.535156 12.828125 6.417969 12.828125 C 6.300781 12.828125 6.203125 12.71875 6.203125 12.582031 Z M 6.203125 12.582031 "/>
<path style=" stroke:none;fill-rule:nonzero;fill:rgb(100%,81.960784%,0%);fill-opacity:1;" d="M 5.75 12.773438 C 5.632812 12.753906 5.550781 12.632812 5.570312 12.496094 C 5.585938 12.359375 5.691406 12.269531 5.808594 12.285156 C 5.925781 12.304688 6.007812 12.433594 5.988281 12.5625 C 5.976562 12.6875 5.882812 12.777344 5.78125 12.777344 C 5.769531 12.777344 5.757812 12.777344 5.75 12.773438 Z M 5.75 12.773438 "/>
<path style=" stroke:none;fill-rule:nonzero;fill:rgb(100%,81.960784%,0%);fill-opacity:1;" d="M 6.84375 12.566406 C 6.828125 12.429688 6.910156 12.304688 7.027344 12.285156 C 7.144531 12.265625 7.253906 12.359375 7.269531 12.492188 C 7.285156 12.628906 7.207031 12.753906 7.089844 12.773438 C 7.074219 12.773438 7.070312 12.777344 7.058594 12.777344 C 6.953125 12.777344 6.863281 12.691406 6.84375 12.566406 Z M 6.84375 12.566406 "/>
<path style=" stroke:none;fill-rule:nonzero;fill:rgb(100%,81.960784%,0%);fill-opacity:1;" d="M 5.09375 12.613281 C 4.980469 12.574219 4.914062 12.4375 4.949219 12.304688 C 4.980469 12.171875 5.101562 12.101562 5.214844 12.140625 C 5.328125 12.175781 5.390625 12.3125 5.359375 12.445312 C 5.332031 12.550781 5.25 12.621094 5.152344 12.621094 C 5.136719 12.621094 5.113281 12.621094 5.09375 12.613281 Z M 5.09375 12.613281 "/>
<path style=" stroke:none;fill-rule:nonzero;fill:rgb(100%,81.960784%,0%);fill-opacity:1;" d="M 7.476562 12.445312 C 7.445312 12.3125 7.511719 12.171875 7.625 12.136719 C 7.738281 12.097656 7.855469 12.171875 7.886719 12.304688 C 7.921875 12.4375 7.859375 12.570312 7.746094 12.609375 C 7.722656 12.617188 7.703125 12.621094 7.683594 12.621094 C 7.589844 12.621094 7.503906 12.550781 7.476562 12.445312 Z M 7.476562 12.445312 "/>
<path style=" stroke:none;fill-rule:nonzero;fill:rgb(100%,81.960784%,0%);fill-opacity:1;" d="M 4.464844 12.34375 C 4.355469 12.285156 4.308594 12.140625 4.359375 12.015625 C 4.410156 11.890625 4.535156 11.839844 4.640625 11.890625 C 4.746094 11.949219 4.796875 12.097656 4.746094 12.21875 C 4.714844 12.3125 4.636719 12.367188 4.554688 12.367188 C 4.523438 12.367188 4.492188 12.359375 4.464844 12.34375 Z M 4.464844 12.34375 "/>
<path style=" stroke:none;fill-rule:nonzero;fill:rgb(100%,81.960784%,0%);fill-opacity:1;" d="M 8.089844 12.214844 C 8.039062 12.09375 8.085938 11.945312 8.191406 11.886719 C 8.296875 11.832031 8.429688 11.882812 8.480469 12.007812 C 8.527344 12.136719 8.480469 12.28125 8.371094 12.339844 C 8.34375 12.351562 8.3125 12.359375 8.28125 12.359375 C 8.203125 12.359375 8.125 12.304688 8.089844 12.214844 Z M 8.089844 12.214844 "/>
<path style=" stroke:none;fill-rule:nonzero;fill:rgb(100%,81.960784%,0%);fill-opacity:1;" d="M 3.875 11.972656 C 3.773438 11.898438 3.75 11.746094 3.8125 11.628906 C 3.875 11.515625 4.003906 11.484375 4.105469 11.558594 C 4.207031 11.628906 4.234375 11.785156 4.171875 11.894531 C 4.128906 11.96875 4.058594 12.011719 3.992188 12.011719 C 3.953125 12.011719 3.914062 11.996094 3.875 11.972656 Z M 3.875 11.972656 "/>
<path style=" stroke:none;fill-rule:nonzero;fill:rgb(100%,81.960784%,0%);fill-opacity:1;" d="M 8.664062 11.890625 C 8.597656 11.777344 8.628906 11.625 8.726562 11.550781 C 8.828125 11.476562 8.960938 11.511719 9.023438 11.625 C 9.085938 11.738281 9.058594 11.890625 8.960938 11.964844 C 8.921875 11.992188 8.882812 12.003906 8.84375 12.003906 C 8.773438 12.003906 8.703125 11.964844 8.664062 11.890625 Z M 8.664062 11.890625 "/>
<path style=" stroke:none;fill-rule:nonzero;fill:rgb(100%,81.960784%,0%);fill-opacity:1;" d="M 3.335938 11.511719 C 3.25 11.417969 3.242188 11.265625 3.316406 11.160156 C 3.394531 11.054688 3.53125 11.042969 3.617188 11.132812 C 3.707031 11.222656 3.71875 11.378906 3.636719 11.484375 C 3.597656 11.539062 3.539062 11.570312 3.476562 11.570312 C 3.429688 11.570312 3.378906 11.550781 3.335938 11.511719 Z M 3.335938 11.511719 "/>
<path style=" stroke:none;fill-rule:nonzero;fill:rgb(100%,81.960784%,0%);fill-opacity:1;" d="M 9.195312 11.476562 C 9.117188 11.371094 9.128906 11.21875 9.214844 11.128906 C 9.304688 11.039062 9.441406 11.050781 9.519531 11.152344 C 9.59375 11.257812 9.585938 11.414062 9.496094 11.503906 C 9.453125 11.542969 9.40625 11.566406 9.359375 11.566406 C 9.296875 11.5625 9.238281 11.535156 9.195312 11.476562 Z M 9.195312 11.476562 "/>
<path style=" stroke:none;fill-rule:nonzero;fill:rgb(100%,81.960784%,0%);fill-opacity:1;" d="M 2.863281 10.964844 C 2.785156 10.859375 2.796875 10.699219 2.882812 10.613281 C 2.972656 10.523438 3.109375 10.535156 3.1875 10.640625 C 3.265625 10.742188 3.253906 10.898438 3.167969 10.984375 C 3.128906 11.023438 3.074219 11.046875 3.027344 11.046875 C 2.964844 11.046875 2.90625 11.015625 2.863281 10.964844 Z M 2.863281 10.964844 "/>
<path style=" stroke:none;fill-rule:nonzero;fill:rgb(100%,100%,100%);fill-opacity:1;" d="M 9.667969 10.980469 C 9.578125 10.890625 9.570312 10.734375 9.648438 10.632812 C 9.726562 10.527344 9.859375 10.515625 9.949219 10.605469 C 10.039062 10.695312 10.046875 10.851562 9.96875 10.957031 C 9.925781 11.007812 9.867188 11.039062 9.808594 11.039062 C 9.757812 11.039062 9.707031 11.019531 9.667969 10.980469 Z M 9.667969 10.980469 "/>
<path style=" stroke:none;fill-rule:nonzero;fill:rgb(100%,81.960784%,0%);fill-opacity:1;" d="M 2.460938 10.34375 C 2.394531 10.226562 2.425781 10.078125 2.527344 10.003906 C 2.621094 9.925781 2.757812 9.960938 2.820312 10.078125 C 2.882812 10.1875 2.851562 10.34375 2.757812 10.414062 C 2.71875 10.441406 2.683594 10.453125 2.640625 10.453125 C 2.570312 10.453125 2.503906 10.414062 2.460938 10.34375 Z M 2.460938 10.34375 "/>
<path style=" stroke:none;fill-rule:nonzero;fill:rgb(100%,100%,100%);fill-opacity:1;" d="M 10.074219 10.40625 C 9.980469 10.335938 9.949219 10.179688 10.011719 10.070312 C 10.074219 9.953125 10.210938 9.917969 10.304688 9.996094 C 10.410156 10.070312 10.4375 10.222656 10.375 10.335938 C 10.328125 10.40625 10.261719 10.445312 10.191406 10.445312 C 10.152344 10.445312 10.113281 10.433594 10.074219 10.40625 Z M 10.074219 10.40625 "/>
<path style=" stroke:none;fill-rule:nonzero;fill:rgb(100%,81.960784%,0%);fill-opacity:1;" d="M 2.136719 9.667969 C 2.089844 9.539062 2.136719 9.394531 2.242188 9.335938 C 2.347656 9.28125 2.480469 9.335938 2.527344 9.460938 C 2.574219 9.582031 2.527344 9.730469 2.421875 9.789062 C 2.390625 9.804688 2.363281 9.8125 2.332031 9.8125 C 2.25 9.8125 2.175781 9.757812 2.136719 9.667969 Z M 2.136719 9.667969 "/>
<path style=" stroke:none;fill-rule:nonzero;fill:rgb(100%,100%,100%);fill-opacity:1;" d="M 10.410156 9.777344 C 10.304688 9.722656 10.257812 9.574219 10.304688 9.453125 C 10.355469 9.324219 10.480469 9.269531 10.585938 9.328125 C 10.695312 9.386719 10.746094 9.53125 10.695312 9.65625 C 10.65625 9.75 10.582031 9.800781 10.5 9.800781 C 10.46875 9.800781 10.441406 9.792969 10.410156 9.777344 Z M 10.410156 9.777344 "/>
<path style=" stroke:none;fill-rule:nonzero;fill:rgb(100%,81.960784%,0%);fill-opacity:1;" d="M 1.902344 8.9375 C 1.867188 8.808594 1.933594 8.671875 2.042969 8.636719 C 2.160156 8.597656 2.277344 8.667969 2.3125 8.800781 C 2.34375 8.933594 2.28125 9.070312 2.167969 9.105469 C 2.148438 9.113281 2.128906 9.117188 2.109375 9.117188 C 2.015625 9.117188 1.929688 9.046875 1.902344 8.9375 Z M 1.902344 8.9375 "/>
<path style=" stroke:none;fill-rule:nonzero;fill:rgb(100%,100%,100%);fill-opacity:1;" d="M 10.664062 9.097656 C 10.550781 9.058594 10.488281 8.921875 10.515625 8.789062 C 10.550781 8.65625 10.671875 8.585938 10.785156 8.625 C 10.898438 8.660156 10.960938 8.796875 10.929688 8.929688 C 10.902344 9.035156 10.816406 9.105469 10.722656 9.105469 C 10.703125 9.105469 10.683594 9.105469 10.664062 9.097656 Z M 10.664062 9.097656 "/>
<path style=" stroke:none;fill-rule:nonzero;fill:rgb(100%,81.960784%,0%);fill-opacity:1;" d="M 1.761719 8.183594 C 1.742188 8.050781 1.824219 7.925781 1.9375 7.90625 C 2.058594 7.882812 2.164062 7.980469 2.179688 8.113281 C 2.203125 8.246094 2.117188 8.371094 2 8.390625 C 1.992188 8.394531 1.980469 8.394531 1.972656 8.394531 C 1.867188 8.394531 1.773438 8.308594 1.761719 8.183594 Z M 1.761719 8.183594 "/>
<path style=" stroke:none;fill-rule:nonzero;fill:rgb(100%,100%,100%);fill-opacity:1;" d="M 10.832031 8.382812 C 10.710938 8.363281 10.628906 8.238281 10.648438 8.101562 C 10.664062 7.96875 10.769531 7.875 10.886719 7.894531 C 11.007812 7.914062 11.085938 8.039062 11.070312 8.171875 C 11.054688 8.296875 10.964844 8.382812 10.859375 8.382812 C 10.847656 8.382812 10.839844 8.382812 10.832031 8.382812 Z M 10.832031 8.382812 "/>
<path style=" stroke:none;fill-rule:nonzero;fill:rgb(100%,81.960784%,0%);fill-opacity:1;" d="M 1.710938 7.414062 C 1.710938 7.273438 1.804688 7.167969 1.925781 7.167969 C 2.042969 7.167969 2.136719 7.273438 2.136719 7.414062 C 2.136719 7.546875 2.042969 7.660156 1.925781 7.660156 C 1.808594 7.660156 1.710938 7.546875 1.710938 7.414062 Z M 1.710938 7.414062 "/>
<path style=" stroke:none;fill-rule:nonzero;fill:rgb(100%,100%,100%);fill-opacity:1;" d="M 10.691406 7.402344 C 10.691406 7.398438 10.691406 7.398438 10.691406 7.398438 C 10.691406 7.390625 10.691406 7.386719 10.691406 7.382812 C 10.691406 7.242188 10.785156 7.136719 10.902344 7.132812 C 11.023438 7.132812 11.113281 7.242188 11.117188 7.378906 C 11.117188 7.386719 11.117188 7.386719 11.117188 7.390625 C 11.117188 7.394531 11.117188 7.398438 11.117188 7.402344 C 11.117188 7.535156 11.023438 7.648438 10.90625 7.648438 C 10.789062 7.648438 10.691406 7.535156 10.691406 7.402344 Z M 10.691406 7.402344 "/>
<path style=" stroke:none;fill-rule:nonzero;fill:rgb(100%,81.960784%,0%);fill-opacity:1;" d="M 1.9375 6.917969 C 1.820312 6.898438 1.742188 6.773438 1.753906 6.640625 C 1.773438 6.507812 1.882812 6.410156 1.996094 6.429688 C 2.113281 6.449219 2.195312 6.578125 2.179688 6.707031 C 2.164062 6.832031 2.074219 6.921875 1.96875 6.921875 C 1.957031 6.921875 1.949219 6.917969 1.9375 6.917969 Z M 1.9375 6.917969 "/>
<path style=" stroke:none;fill-rule:nonzero;fill:rgb(100%,100%,100%);fill-opacity:1;" d="M 10.648438 6.675781 C 10.628906 6.546875 10.710938 6.417969 10.824219 6.398438 C 10.941406 6.378906 11.050781 6.472656 11.066406 6.605469 C 11.085938 6.742188 11.003906 6.871094 10.886719 6.886719 C 10.878906 6.886719 10.863281 6.890625 10.855469 6.890625 C 10.753906 6.890625 10.660156 6.800781 10.648438 6.675781 Z M 10.648438 6.675781 "/>
<path style=" stroke:none;fill-rule:nonzero;fill:rgb(100%,81.960784%,0%);fill-opacity:1;" d="M 2.042969 6.191406 C 1.925781 6.152344 1.863281 6.011719 1.898438 5.882812 C 1.929688 5.75 2.046875 5.679688 2.160156 5.714844 C 2.273438 5.75 2.339844 5.890625 2.308594 6.019531 C 2.28125 6.128906 2.195312 6.199219 2.101562 6.199219 C 2.082031 6.199219 2.0625 6.199219 2.042969 6.191406 Z M 2.042969 6.191406 "/>
<path style=" stroke:none;fill-rule:nonzero;fill:rgb(100%,100%,100%);fill-opacity:1;" d="M 10.515625 5.996094 C 10.480469 5.863281 10.542969 5.722656 10.65625 5.6875 C 10.769531 5.648438 10.890625 5.71875 10.925781 5.851562 C 10.957031 5.984375 10.890625 6.117188 10.78125 6.15625 C 10.757812 6.164062 10.742188 6.167969 10.71875 6.167969 C 10.628906 6.167969 10.539062 6.097656 10.515625 5.996094 Z M 10.515625 5.996094 "/>
<path style=" stroke:none;fill-rule:nonzero;fill:rgb(100%,81.960784%,0%);fill-opacity:1;" d="M 2.234375 5.484375 C 2.128906 5.425781 2.082031 5.28125 2.128906 5.15625 C 2.179688 5.035156 2.304688 4.976562 2.414062 5.035156 C 2.523438 5.09375 2.570312 5.238281 2.519531 5.363281 C 2.484375 5.449219 2.40625 5.503906 2.324219 5.503906 C 2.296875 5.503906 2.265625 5.5 2.234375 5.484375 Z M 2.234375 5.484375 "/>
<path style=" stroke:none;fill-rule:nonzero;fill:rgb(100%,100%,100%);fill-opacity:1;" d="M 10.296875 5.335938 C 10.246094 5.210938 10.296875 5.0625 10.402344 5.007812 C 10.511719 4.949219 10.636719 5.003906 10.6875 5.125 C 10.734375 5.25 10.6875 5.398438 10.582031 5.453125 C 10.554688 5.46875 10.519531 5.476562 10.492188 5.476562 C 10.410156 5.476562 10.332031 5.421875 10.296875 5.335938 Z M 10.296875 5.335938 "/>
<path style=" stroke:none;fill-rule:nonzero;fill:rgb(100%,81.960784%,0%);fill-opacity:1;" d="M 2.515625 4.820312 C 2.414062 4.746094 2.386719 4.589844 2.449219 4.480469 C 2.515625 4.359375 2.644531 4.328125 2.746094 4.402344 C 2.847656 4.476562 2.875 4.628906 2.8125 4.746094 C 2.769531 4.816406 2.699219 4.855469 2.628906 4.855469 C 2.59375 4.855469 2.550781 4.839844 2.515625 4.820312 Z M 2.515625 4.820312 "/>
<path style=" stroke:none;fill-rule:nonzero;fill:rgb(100%,100%,100%);fill-opacity:1;" d="M 10.007812 4.71875 C 9.9375 4.601562 9.96875 4.453125 10.066406 4.375 C 10.167969 4.300781 10.296875 4.335938 10.363281 4.453125 C 10.425781 4.5625 10.398438 4.71875 10.300781 4.792969 C 10.261719 4.820312 10.222656 4.832031 10.183594 4.832031 C 10.113281 4.832031 10.046875 4.792969 10.007812 4.71875 Z M 10.007812 4.71875 "/>
<path style=" stroke:none;fill-rule:nonzero;fill:rgb(100%,81.960784%,0%);fill-opacity:1;" d="M 2.875 4.207031 C 2.78125 4.113281 2.777344 3.957031 2.851562 3.855469 C 2.929688 3.75 3.0625 3.742188 3.152344 3.832031 C 3.242188 3.921875 3.25 4.074219 3.175781 4.179688 C 3.132812 4.238281 3.074219 4.261719 3.011719 4.261719 C 2.964844 4.261719 2.914062 4.246094 2.875 4.207031 Z M 2.875 4.207031 "/>
<path style=" stroke:none;fill-rule:nonzero;fill:rgb(100%,100%,100%);fill-opacity:1;" d="M 9.636719 4.15625 C 9.558594 4.054688 9.566406 3.898438 9.65625 3.808594 C 9.746094 3.71875 9.878906 3.730469 9.957031 3.835938 C 10.035156 3.9375 10.027344 4.089844 9.9375 4.179688 C 9.898438 4.222656 9.847656 4.242188 9.796875 4.242188 C 9.738281 4.242188 9.679688 4.214844 9.636719 4.15625 Z M 9.636719 4.15625 "/>
<path style=" stroke:none;fill-rule:nonzero;fill:rgb(100%,100%,100%);fill-opacity:1;" d="M 3.304688 3.65625 C 3.226562 3.554688 3.234375 3.394531 3.324219 3.308594 C 3.414062 3.21875 3.546875 3.230469 3.625 3.335938 C 3.703125 3.433594 3.695312 3.589844 3.605469 3.679688 C 3.566406 3.71875 3.515625 3.738281 3.464844 3.738281 C 3.40625 3.738281 3.347656 3.710938 3.304688 3.65625 Z M 3.304688 3.65625 "/>
<path style=" stroke:none;fill-rule:nonzero;fill:rgb(100%,100%,100%);fill-opacity:1;" d="M 9.203125 3.664062 C 9.113281 3.574219 9.105469 3.414062 9.179688 3.316406 C 9.257812 3.210938 9.390625 3.195312 9.480469 3.285156 C 9.570312 3.375 9.582031 3.53125 9.503906 3.636719 C 9.464844 3.6875 9.40625 3.71875 9.34375 3.71875 C 9.292969 3.71875 9.246094 3.699219 9.203125 3.664062 Z M 9.203125 3.664062 "/>
<path style=" stroke:none;fill-rule:nonzero;fill:rgb(100%,100%,100%);fill-opacity:1;" d="M 3.796875 3.183594 C 3.730469 3.070312 3.761719 2.914062 3.863281 2.839844 C 3.957031 2.769531 4.09375 2.796875 4.15625 2.914062 C 4.21875 3.03125 4.191406 3.183594 4.09375 3.257812 C 4.058594 3.285156 4.019531 3.296875 3.976562 3.296875 C 3.90625 3.296875 3.839844 3.257812 3.796875 3.183594 Z M 3.796875 3.183594 "/>
<path style=" stroke:none;fill-rule:nonzero;fill:rgb(100%,100%,100%);fill-opacity:1;" d="M 8.714844 3.242188 C 8.617188 3.167969 8.585938 3.015625 8.648438 2.898438 C 8.714844 2.785156 8.847656 2.753906 8.945312 2.824219 C 9.042969 2.898438 9.070312 3.054688 9.011719 3.164062 C 8.96875 3.238281 8.898438 3.28125 8.828125 3.28125 C 8.789062 3.28125 8.75 3.265625 8.714844 3.242188 Z M 8.714844 3.242188 "/>
<path style=" stroke:none;fill-rule:nonzero;fill:rgb(100%,100%,100%);fill-opacity:1;" d="M 4.34375 2.796875 C 4.292969 2.671875 4.339844 2.523438 4.445312 2.472656 C 4.554688 2.414062 4.683594 2.46875 4.730469 2.589844 C 4.78125 2.714844 4.734375 2.859375 4.628906 2.917969 C 4.597656 2.933594 4.566406 2.941406 4.535156 2.941406 C 4.457031 2.941406 4.378906 2.886719 4.34375 2.796875 Z M 4.34375 2.796875 "/>
<path style=" stroke:none;fill-rule:nonzero;fill:rgb(100%,100%,100%);fill-opacity:1;" d="M 8.179688 2.90625 C 8.070312 2.847656 8.019531 2.703125 8.070312 2.578125 C 8.121094 2.457031 8.246094 2.398438 8.355469 2.457031 C 8.460938 2.507812 8.507812 2.65625 8.460938 2.78125 C 8.425781 2.875 8.347656 2.925781 8.265625 2.925781 C 8.234375 2.925781 8.207031 2.921875 8.179688 2.90625 Z M 8.179688 2.90625 "/>
<path style=" stroke:none;fill-rule:nonzero;fill:rgb(100%,100%,100%);fill-opacity:1;" d="M 4.929688 2.503906 C 4.898438 2.375 4.960938 2.234375 5.074219 2.195312 C 5.1875 2.160156 5.304688 2.230469 5.34375 2.363281 C 5.375 2.492188 5.3125 2.628906 5.199219 2.667969 C 5.175781 2.675781 5.160156 2.679688 5.136719 2.679688 C 5.042969 2.679688 4.957031 2.609375 4.929688 2.503906 Z M 4.929688 2.503906 "/>
<path style=" stroke:none;fill-rule:nonzero;fill:rgb(100%,100%,100%);fill-opacity:1;" d="M 7.605469 2.664062 C 7.492188 2.621094 7.425781 2.488281 7.460938 2.355469 C 7.492188 2.222656 7.609375 2.148438 7.722656 2.191406 C 7.835938 2.222656 7.902344 2.359375 7.871094 2.492188 C 7.84375 2.601562 7.761719 2.671875 7.664062 2.671875 C 7.648438 2.671875 7.628906 2.667969 7.605469 2.664062 Z M 7.605469 2.664062 "/>
<path style=" stroke:none;fill-rule:nonzero;fill:rgb(100%,100%,100%);fill-opacity:1;" d="M 5.550781 2.308594 C 5.53125 2.175781 5.617188 2.050781 5.734375 2.03125 C 5.734375 2.03125 5.734375 2.03125 5.730469 2.03125 C 5.847656 2.011719 5.957031 2.105469 5.972656 2.238281 C 5.988281 2.375 5.910156 2.496094 5.792969 2.515625 C 5.78125 2.519531 5.773438 2.519531 5.761719 2.519531 C 5.65625 2.519531 5.566406 2.433594 5.550781 2.308594 Z M 5.550781 2.308594 "/>
<path style=" stroke:none;fill-rule:nonzero;fill:rgb(100%,100%,100%);fill-opacity:1;" d="M 7.007812 2.511719 C 6.890625 2.496094 6.808594 2.371094 6.824219 2.234375 C 6.84375 2.101562 6.953125 2.007812 7.070312 2.023438 C 7.1875 2.046875 7.265625 2.171875 7.25 2.304688 C 7.238281 2.429688 7.144531 2.515625 7.039062 2.515625 C 7.027344 2.515625 7.019531 2.515625 7.007812 2.511719 Z M 7.007812 2.511719 "/>
<path style=" stroke:none;fill-rule:nonzero;fill:rgb(100%,100%,100%);fill-opacity:1;" d="M 6.1875 2.21875 C 6.1875 2.085938 6.28125 1.972656 6.402344 1.972656 C 6.519531 1.972656 6.613281 2.082031 6.613281 2.21875 C 6.613281 2.355469 6.519531 2.46875 6.402344 2.46875 C 6.28125 2.46875 6.1875 2.359375 6.1875 2.21875 Z M 6.1875 2.21875 "/>
<path style=" stroke:none;fill-rule:nonzero;fill:rgb(100%,100%,100%);fill-opacity:1;" d="M 6.414062 13.816406 C 3.347656 13.816406 0.855469 10.941406 0.855469 7.402344 C 0.855469 3.863281 3.347656 0.988281 6.414062 0.988281 C 9.480469 0.988281 11.972656 3.863281 11.972656 7.402344 C 11.972656 10.941406 9.480469 13.816406 6.414062 13.816406 Z M 6.414062 1.480469 C 3.585938 1.480469 1.28125 4.136719 1.28125 7.402344 C 1.28125 10.667969 3.585938 13.324219 6.414062 13.324219 C 9.246094 13.324219 11.546875 10.667969 11.546875 7.402344 C 11.546875 4.136719 9.246094 1.480469 6.414062 1.480469 Z M 6.414062 1.480469 "/>
<path style=" stroke:none;fill-rule:nonzero;fill:rgb(100%,81.960784%,0%);fill-opacity:1;" d="M 6.414062 13.816406 C 7.949219 13.816406 9.335938 13.09375 10.34375 11.933594 L 10.042969 11.585938 C 9.109375 12.660156 7.828125 13.324219 6.414062 13.324219 C 3.585938 13.324219 1.28125 10.667969 1.28125 7.402344 C 1.28125 5.769531 1.859375 4.289062 2.785156 3.214844 L 2.484375 2.867188 C 1.480469 4.027344 0.855469 5.632812 0.855469 7.402344 C 0.855469 10.941406 3.347656 13.816406 6.414062 13.816406 Z M 6.414062 13.816406 "/>
<path style=" stroke:none;fill-rule:nonzero;fill:rgb(100%,81.960784%,0%);fill-opacity:1;" d="M 6.738281 11.347656 L 6.738281 10.859375 C 7.515625 10.765625 8.152344 10.351562 8.460938 9.765625 L 7.984375 9.214844 C 7.820312 9.738281 7.167969 10.136719 6.417969 10.136719 C 5.546875 10.136719 4.808594 9.597656 4.808594 8.953125 C 4.808594 8.75 4.664062 8.585938 4.488281 8.585938 C 4.308594 8.585938 4.167969 8.75 4.167969 8.953125 C 4.167969 9.941406 4.992188 10.726562 6.097656 10.859375 L 6.097656 11.347656 C 6.097656 11.554688 6.242188 11.71875 6.417969 11.71875 C 6.59375 11.71875 6.738281 11.554688 6.738281 11.347656 Z M 6.738281 11.347656 "/>
<path style=" stroke:none;fill-rule:nonzero;fill:rgb(100%,81.960784%,0%);fill-opacity:1;" d="M 4.371094 5.042969 C 4.238281 5.285156 4.167969 5.558594 4.167969 5.847656 C 4.167969 6.925781 5.15625 7.769531 6.417969 7.769531 C 6.535156 7.769531 6.648438 7.78125 6.761719 7.800781 L 6.066406 7 C 5.359375 6.882812 4.808594 6.398438 4.808594 5.847656 C 4.808594 5.757812 4.824219 5.675781 4.847656 5.59375 Z M 4.371094 5.042969 "/>
</g>
</svg>
